# xmcd
#
# Track frame offsets:
#   150
#   13122
#   28605
#   41897
#   56192
#   71035
#   86755
#   97922
#   110057
#   125545
#   140162
#   158085
#   168930
#
# Disc length: 2421 seconds
#
# Revision: 0
# Processed by: cddbd v1.5.1PL0 Copyright (c) Steve Scherf et al.
# Submitted via: uFREEDB ActiveX Control 1.5
#
DISCID=b909730d
DTITLE=Sangue Latino - Boa de Cozinha
DYEAR=1900
DGENRE=Alternative
TTITLE0=Fui muito duro
TTITLE1=La carta que no mande
TTITLE2=A garota nota 10
TTITLE3=Boa de cozinha
TTITLE4=Não poderei morrer
TTITLE5=Fica comigo
TTITLE6=Moro no apê de cima
TTITLE7=Me devolver pro meu pai
TTITLE8=Dançando com sangue latino
TTITLE9=Metido a gostosão
TTITLE10=Quando partir
TTITLE11=O mala
TTITLE12=25 de julho
EXTD=
EXTT0=
EXTT1=
EXTT2=
EXTT3=
EXTT4=
EXTT5=
EXTT6=
EXTT7=
EXTT8=
EXTT9=
EXTT10=
EXTT11=
EXTT12=
PLAYORDER=
